# Blender v2.74 (sub 0) OBJ File: ''
# www.blender.org
mtllib floating-cube.mtl
o Box
v 1.224350 4.224350 3.346550
v 1.224350 4.224350 0.897850
v 1.224350 1.775650 3.346550
v 1.224350 1.775650 0.897850
v -1.224350 4.224350 0.897850
v -1.224350 4.224350 3.346550
v -1.224350 1.775650 0.897850
v -1.224350 1.775650 3.346550
vt 0.000000 1.000000
vt 0.000000 0.000000
vt 1.000000 0.000000
vt 1.000000 1.000000
vn 0.000000 0.000000 1.000000
vn -1.000000 0.000000 0.000000
vn 1.000000 0.000000 0.000000
vn 0.000000 0.000000 -1.000000
vn 0.000000 1.000000 0.000000
vn 0.000000 -1.000000 0.000000
usemtl desert
s 1
f 6/1/1 8/2/1 3/3/1 1/4/1
usemtl mountains
f 5/1/2 7/2/2 8/3/2 6/4/2
usemtl space
f 1/1/3 3/2/3 4/3/3 2/4/3
usemtl underwater
f 2/1/4 4/2/4 7/3/4 5/4/4
usemtl puy_de_sancy
f 5/1/5 6/2/5 1/3/5 2/4/5
usemtl home
f 8/2/6 7/1/6 4/4/6 3/3/6
